HIERARCHY
ROOT Hips
{
	OFFSET -3.958830 18.904000 13.208200
	CHANNELS 6 Xposition Yposition Zposition Zrotation Yrotation Xrotation 
	JOINT LHipJoint
	{
		OFFSET 0.000000 0.000000 0.000000
		CHANNELS 3 Zrotation Yrotation Xrotation
		JOINT LeftUpLeg
		{
			OFFSET 1.800000 -1.400000 0.085000
			CHANNELS 3 Zrotation Yrotation Xrotation
			JOINT LeftLeg
			{
				OFFSET 2.215000 -6.000000 0.000000
				CHANNELS 3 Zrotation Yrotation Xrotation
				JOINT LeftFoot
				{
					OFFSET 2.500000 -6.900000 0.000000
					CHANNELS 3 Zrotation Yrotation Xrotation
					JOINT LeftToeBase
					{
						OFFSET 0.200000 -0.500000 1.950000
						CHANNELS 3 Zrotation Yrotation Xrotation
						End Site
						{
							OFFSET 0.000000 0.000000 0.000000
						}
					}
				}
			}
		}
	}
	JOINT RHipJoint
	{
		OFFSET 0.000000 0.000000 0.000000
		CHANNELS 3 Zrotation Yrotation Xrotation
		JOINT RightUpLeg
		{
			OFFSET -1.800000 -1.400000 0.085000
			CHANNELS 3 Zrotation Yrotation Xrotation
			JOINT RightLeg
			{
				OFFSET -2.215000 -6.000000 0.000000
				CHANNELS 3 Zrotation Yrotation Xrotation
				JOINT RightFoot
				{
					OFFSET -2.500000 -6.900000 0.000000
					CHANNELS 3 Zrotation Yrotation Xrotation
					JOINT RightToeBase
					{
						OFFSET -0.200000 -0.500000 1.950000
						CHANNELS 3 Zrotation Yrotation Xrotation
						End Site
						{
							OFFSET 0.000000 0.000000 0.000000
						}
					}
				}
			}
		}
	}
	JOINT LowerBack
	{
		OFFSET 0.000000 0.000000 0.000000
		CHANNELS 3 Zrotation Yrotation Xrotation
		JOINT Spine
		{
			OFFSET -0.087000 1.940000 -0.288900
			CHANNELS 3 Zrotation Yrotation Xrotation
			JOINT Spine1
			{
				OFFSET 0.000000 1.950000 0.060000
				CHANNELS 3 Zrotation Yrotation Xrotation
				JOINT Neck
				{
					OFFSET 0.000000 0.000000 0.000000
					CHANNELS 3 Zrotation Yrotation Xrotation
					JOINT Neck1
					{
						OFFSET 0.000000 1.600000 0.340000
						CHANNELS 3 Zrotation Yrotation Xrotation
						JOINT Head
						{
							OFFSET 0.000000 1.667000 -0.240000
							CHANNELS 3 Zrotation Yrotation Xrotation
							End Site
							{
								OFFSET 0.000000 0.000000 0.000000
							}
						}
					}
				}
				JOINT LeftShoulder
				{
					OFFSET 0.000000 0.000000 0.000000
					CHANNELS 3 Zrotation Yrotation Xrotation
					JOINT LeftArm
					{
						OFFSET 2.700000 1.550000 -0.730000
						CHANNELS 3 Zrotation Yrotation Xrotation
						JOINT LeftForeArm
						{
							OFFSET 5.450000 0.000000 0.000000
							CHANNELS 3 Zrotation Yrotation Xrotation
							JOINT LeftHand
							{
								OFFSET 3.450000 0.000000 0.000000
								CHANNELS 3 Zrotation Yrotation Xrotation
								JOINT LeftHandIndex1
								{
									OFFSET 0.750000 0.000000 0.000000
									CHANNELS 3 Zrotation Yrotation Xrotation
									End Site
									{
										OFFSET 0.000000 0.000000 0.000000
									}
								}
							}
						}
					}
				}
				JOINT RightShoulder
				{
					OFFSET 0.000000 0.000000 0.000000
					CHANNELS 3 Zrotation Yrotation Xrotation
					JOINT RightArm
					{
						OFFSET -2.700000 1.550000 -0.730000
						CHANNELS 3 Zrotation Yrotation Xrotation
						JOINT RightForeArm
						{
							OFFSET -5.450000 0.000000 0.000000
							CHANNELS 3 Zrotation Yrotation Xrotation
							JOINT RightHand
							{
								OFFSET -3.450000 0.000000 0.000000
								CHANNELS 3 Zrotation Yrotation Xrotation
								JOINT RightHandIndex1
								{
									OFFSET -0.750000 0.000000 0.000000
									CHANNELS 3 Zrotation Yrotation Xrotation
									End Site
									{
										OFFSET 0.000000 0.000000 0.000000
									}
								}
							}
						}
					}
				}
			}
		}
	}
}
MOTION
Frames: 14
Frame Time: 0.016667
0.951620 18.211850 -1.164820 -4.994042 -19.920924 -10.964744 -15.181583 11.284420 2.007369 2.714311 0.751185 -0.379216 -9.980762 5.537151 3.343764 -0.593775 4.530410 3.081393 -0.133910 -0.296240 -0.157430 19.016597 -6.713779 7.891731 -5.520691 31.685420 -69.196153 7.264760 -16.027514 79.157738 -2.211245 -12.658058 0.393657 -0.042600 0.358030 -0.073860 -5.037699 -1.855622 -9.361331 26.003027 -7.603494 32.669258 -9.230156 0.133965 5.359227 2.070150 -8.236953 -11.177582 -20.298564 10.221099 44.422404 -8.900000 6.366370 -9.365430 -23.276102 -16.094707 3.278931 -16.946612 -1.468825 -11.829410 53.485510 -77.110618 -41.342754 -3.551084 1.680722 0.603450 0.138240 -0.181480 -0.052150 18.549316 21.760449 8.082181 42.406671 14.209735 -8.497491 -4.640880 38.515412 -2.374285 1.781797 -0.912276 -0.500310 0.524270 0.491470 -0.267480 
0.958520 18.225580 -1.159420 -4.905624 -19.825167 -11.052154 -15.184592 11.294660 2.016358 2.549715 0.811156 -0.006585 -9.616219 5.447700 3.103368 -0.588325 4.523249 3.091883 -0.141970 -0.305100 -0.168820 19.014249 -6.706787 7.886331 -6.084752 31.536373 -69.586431 7.702884 -16.341266 79.000977 -2.220250 -12.690356 0.384958 -0.049310 0.366730 -0.075720 -5.026195 -1.886151 -9.360392 26.055920 -7.660249 32.783901 -9.176668 0.110841 5.414062 2.058330 -8.322742 -11.418211 -20.623289 10.373754 44.521884 -8.696350 6.302430 -9.268000 -22.902928 -16.346905 3.444737 -16.870177 -1.211247 -11.913156 55.295462 -76.939249 -42.497042 -3.529664 1.597735 0.609970 0.134950 -0.180480 -0.046670 18.244143 22.095027 8.256161 42.282451 14.133230 -8.472697 -4.658253 38.200053 -2.344162 1.783716 -0.905798 -0.505110 0.532610 0.495860 -0.262390 
0.972130 18.247560 -1.152180 -4.710855 -19.517372 -11.307204 -15.193527 11.322518 2.022822 2.240815 0.918849 0.660243 -8.847387 5.312617 2.889295 -0.590720 4.512499 3.100560 -0.144390 -0.315240 -0.164220 19.005578 -6.687115 7.879834 -8.150282 31.083490 -71.322689 9.490094 -17.941415 79.117510 -2.291646 -13.005978 0.305941 -0.053000 0.365200 -0.083380 -4.988624 -1.967929 -9.363157 25.959875 -7.722104 33.082477 -8.848678 0.021858 5.579238 1.999221 -8.418485 -11.680536 -21.055794 10.459651 44.730447 -8.561040 6.138470 -9.381360 -22.177558 -16.591999 3.629979 -16.881521 -1.219121 -11.918407 57.456226 -76.427456 -43.609929 -3.499235 1.485939 0.622010 0.127960 -0.180210 -0.049630 17.706863 22.428210 8.392403 42.069370 14.206140 -8.295959 -4.816270 37.433910 -2.305876 1.787223 -0.889175 -0.513790 0.542510 0.498540 -0.268090 
0.981580 18.280470 -1.148500 -4.448814 -18.955613 -12.040813 -15.214848 11.350325 2.091165 2.104254 1.108039 1.971256 -8.296952 5.103804 1.648014 -0.553559 4.547249 3.087124 -0.128740 -0.302610 -0.143980 18.981282 -6.647767 7.826671 -10.466217 30.173142 -72.708754 11.864243 -19.846656 78.668857 -2.374677 -13.311117 0.219955 -0.053130 0.338060 -0.085740 -4.899906 -2.114950 -9.394123 25.566461 -7.888606 34.049587 -8.362093 -0.195450 5.741942 1.946512 -8.456746 -12.041754 -21.476962 10.537563 45.202282 -8.414400 5.957580 -9.870570 -21.594830 -17.177650 3.847772 -16.064977 -0.988594 -11.962154 57.954807 -75.889267 -43.450874 -3.464483 1.480220 0.637390 0.102760 -0.160960 -0.053520 17.342938 23.075787 8.671073 41.472727 14.100629 -8.343496 -5.162043 36.912333 -2.342534 1.798365 -0.884048 -0.504090 0.535660 0.486500 -0.271870 
0.992860 18.301310 -1.147070 -4.427430 -18.507449 -12.336638 -15.230165 11.333854 2.129800 2.043506 1.229276 2.897980 -7.905181 4.937185 0.603190 -0.538270 4.580319 3.075978 -0.119050 -0.295470 -0.135390 18.976320 -6.582385 7.829567 -12.116853 29.474511 -74.184788 13.015094 -20.564763 77.980148 -2.384492 -13.357506 0.198806 -0.048760 0.322490 -0.091980 -4.861715 -2.203104 -9.414948 25.652070 -8.173002 34.614564 -8.029185 -0.404145 5.911705 1.856200 -8.646142 -12.275700 -22.117489 10.563824 45.065381 -8.331880 5.626190 -10.469820 -20.739095 -17.443786 3.974779 -15.333213 -1.080430 -11.774393 56.647501 -75.116420 -41.791751 -3.447947 1.552528 0.653790 0.083840 -0.151380 -0.054700 16.758871 23.415274 8.834138 41.128818 14.001132 -8.543837 -5.528103 37.316331 -2.446716 1.792274 -0.880282 -0.506000 0.538620 0.482150 -0.275910 
1.004150 18.311020 -1.152330 -4.240143 -18.316502 -12.579436 -15.253532 11.324088 2.162552 1.883587 1.361918 3.595804 -7.878893 4.889038 -0.020397 -0.528224 4.642993 3.067419 -0.117810 -0.300970 -0.134570 18.965746 -6.503350 7.854034 -12.909770 29.134560 -75.080523 12.997183 -20.391488 77.677271 -2.365470 -13.270471 0.219264 -0.048220 0.328670 -0.098160 -4.808845 -2.315058 -9.446857 25.484709 -8.210531 35.378929 -7.530273 -0.432323 5.911467 1.691732 -8.815308 -12.493377 -22.703638 10.489570 44.773341 -8.124500 5.173980 -11.102040 -19.865033 -17.746220 4.007970 -13.953135 -1.307291 -11.365786 51.541535 -74.451372 -37.538571 -3.466522 1.748326 0.678490 0.071520 -0.143270 -0.044630 16.313232 23.813505 9.058862 40.525040 13.727351 -8.854508 -5.721605 37.952369 -2.506713 1.777408 -0.867927 -0.521940 0.562880 0.481080 -0.275810 
1.012800 18.310550 -1.164860 -3.996230 -18.482270 -12.769823 -15.293679 11.351751 2.175388 1.622170 1.481697 3.994537 -7.855791 4.922402 -0.029338 -0.516966 4.677612 3.061287 -0.120360 -0.309190 -0.139500 18.939533 -6.395043 7.913103 -12.803587 29.441988 -75.544428 12.032843 -19.522608 77.908525 -2.327212 -13.115226 0.260188 -0.052530 0.328750 -0.106800 -4.711638 -2.514698 -9.492706 24.938243 -7.938573 36.487726 -6.615942 -0.224090 5.696189 1.456725 -8.985475 -12.803883 -23.295545 10.408185 44.323472 -7.831050 4.771090 -11.365780 -19.109858 -18.146654 4.047169 -11.934786 -1.527545 -10.672287 42.870495 -73.557765 -30.747043 -3.502524 2.039254 0.693010 0.058830 -0.141340 -0.038390 16.164101 24.427138 9.415452 39.421208 13.087924 -9.423797 -5.897159 39.123919 -2.585868 1.760325 -0.871037 -0.531050 0.572450 0.480010 -0.275200 
1.018420 18.309900 -1.179630 -3.516482 -18.525125 -13.375374 -15.354158 11.435701 2.215917 1.222603 1.662226 4.550020 -7.565956 4.902573 -0.264963 -0.490064 4.706547 3.054027 -0.129260 -0.322360 -0.143030 18.885358 -6.273633 7.926658 -12.849762 29.505880 -75.542581 11.594518 -19.193165 78.379480 -2.326568 -13.096900 0.265408 -0.065210 0.322470 -0.116360 -4.528602 -2.858877 -9.552083 23.693640 -7.534832 38.304181 -5.323554 -0.073344 5.170530 1.196857 -9.216486 -13.194928 -24.160020 10.427451 43.989042 -7.511140 4.334290 -11.717160 -18.696754 -18.622002 4.070704 -9.305600 -1.563920 -9.848334 32.552271 -72.409329 -22.895394 -3.536692 2.299138 0.706130 0.039540 -0.134320 -0.040470 16.462692 25.214262 9.858838 37.748024 12.215426 -9.946174 -5.577470 39.822739 -2.439678 1.760630 -0.866819 -0.533920 0.579290 0.481290 -0.272140 
1.025790 18.309470 -1.197330 -3.005908 -18.696476 -14.117405 -15.422473 11.536217 2.279091 0.877482 1.831772 5.135779 -7.117823 4.802218 -0.952407 -0.478091 4.759934 3.040430 -0.158520 -0.367830 -0.161270 18.820571 -6.152987 7.908705 -12.122344 29.765535 -74.430747 10.556015 -18.320253 78.738176 -2.290896 -12.953956 0.305103 -0.089440 0.333920 -0.119050 -4.318290 -3.245469 -9.610163 22.438674 -7.029288 40.423943 -4.055205 0.215219 4.484621 1.019310 -9.493057 -13.599279 -25.192005 10.480719 43.677000 -7.171760 3.767440 -11.979870 -18.797000 -19.167579 4.006711 -6.696361 -1.782208 -9.095542 23.918947 -70.962663 -16.337483 -3.575007 2.449411 0.729640 0.030530 -0.136520 -0.049260 17.123799 26.118770 10.405228 35.640606 11.005209 -10.729693 -5.069608 41.116855 -2.230867 1.743108 -0.855895 -0.550800 0.594350 0.505660 -0.273260 
1.034040 18.306630 -1.213610 -2.846040 -19.065378 -14.426914 -15.460443 11.607970 2.286192 0.750838 1.870316 5.181647 -6.733589 4.776879 -0.918776 -0.477697 4.757588 3.052653 -0.168710 -0.381700 -0.176900 18.785670 -6.090655 7.911403 -10.462286 30.426791 -72.771208 8.814222 -16.825876 78.974187 -2.230413 -12.682692 0.388211 -0.095060 0.350750 -0.131750 -4.209156 -3.464408 -9.619255 22.033531 -6.736690 41.809365 -3.206040 0.519347 4.207760 0.825916 -9.905036 -13.879181 -26.342123 10.482407 42.933194 -6.609640 3.065990 -12.084920 -18.730535 -19.508760 3.936277 -5.285553 -2.176739 -8.758210 20.481008 -69.505426 -13.480365 -3.580445 2.492559 0.734790 0.025630 -0.144460 -0.041530 17.597169 26.828657 10.812027 33.886015 10.018931 -11.531438 -4.617792 42.879039 -2.141560 1.722044 -0.868209 -0.562790 0.616590 0.510870 -0.265000 
1.042320 18.297600 -1.206370 -2.840425 -18.982591 -14.368117 -15.473519 11.649372 2.275832 0.655957 1.876864 5.005859 -6.649643 4.808712 -0.606061 -0.468734 4.725201 3.066534 -0.155950 -0.361070 -0.171470 18.770244 -6.082243 7.888036 -10.133874 30.508984 -72.408659 8.715639 -17.176658 79.965800 -2.286011 -12.886792 0.345872 -0.086460 0.345100 -0.143920 -4.159585 -3.572675 -9.616162 22.021550 -6.614927 41.934036 -2.539135 0.578728 4.378938 0.679847 -10.054089 -13.991481 -26.821291 10.303660 42.677616 -6.349010 2.635220 -11.959910 -18.303299 -19.606157 3.942086 -5.359207 -2.941052 -8.610959 18.875915 -68.378572 -12.115237 -3.565245 2.513169 0.722120 0.020200 -0.145790 -0.034760 17.531721 27.013661 10.963341 33.246449 9.338777 -12.043099 -4.339833 44.228758 -2.157832 1.714815 -0.893168 -0.555100 0.618430 0.494180 -0.258100 
1.047870 18.286750 -1.185010 -2.870489 -18.663961 -14.063809 -15.462446 11.662359 2.244709 0.581430 1.843961 4.614243 -6.854760 4.924358 0.191819 -0.488179 4.709415 3.072953 -0.148510 -0.355220 -0.168590 18.775979 -6.119426 7.873245 -10.430021 30.172940 -72.810082 8.804327 -17.745677 80.878675 -2.340416 -13.132701 0.284697 -0.078620 0.348270 -0.147260 -4.174081 -3.558215 -9.601047 22.263865 -6.590808 41.241687 -2.253429 0.548106 4.707350 0.555943 -9.946693 -14.000935 -26.658844 10.064228 42.856822 -6.248020 2.446490 -11.578600 -17.708192 -19.659093 3.949575 -5.951409 -3.935927 -8.425542 16.237133 -67.879915 -10.423208 -3.563960 2.541000 0.719230 0.024870 -0.152520 -0.029420 17.184408 26.876754 11.004094 33.803572 8.865542 -12.338805 -3.995985 44.933247 -2.182020 1.700937 -0.909520 -0.558900 0.619830 0.489610 -0.260460 
1.048880 18.279420 -1.154920 -3.094223 -17.954261 -13.696693 -15.433784 11.676366 2.193701 0.804363 1.763989 4.122845 -7.419838 5.178484 1.501013 -0.510667 4.725245 3.059884 -0.136710 -0.345270 -0.153840 18.793639 -6.188442 7.851434 -10.988543 29.442567 -73.615815 9.050129 -18.560734 81.706191 -2.403657 -13.403421 0.209603 -0.069420 0.337020 -0.145800 -4.219993 -3.493958 -9.572833 22.745707 -6.888546 40.256732 -2.346706 0.305639 5.010502 0.562405 -9.668855 -13.968601 -26.166553 9.814310 43.519578 -6.327130 2.409190 -11.662110 -17.023070 -19.687238 3.980597 -7.048576 -4.929440 -8.344311 13.791561 -67.585498 -8.988105 -3.556475 2.553899 0.727490 0.021580 -0.144880 -0.030390 16.449117 26.534275 10.941736 35.418212 8.739773 -12.371365 -3.495498 44.801269 -2.134758 1.698660 -0.904554 -0.560120 0.618870 0.484100 -0.268770 
1.052580 18.270040 -1.119510 -3.658435 -17.492691 -12.849408 -15.387065 11.669009 2.112668 1.273965 1.553356 3.175709 -8.152172 5.514442 3.213042 -0.535011 4.736478 3.042417 -0.130850 -0.338750 -0.135300 18.828477 -6.285831 7.845275 -10.861214 29.019687 -74.233209 8.913567 -19.093572 82.517973 -2.452585 -13.618183 0.143168 -0.066170 0.325830 -0.135810 -4.327429 -3.333698 -9.525595 23.843148 -7.375629 38.663088 -2.835022 0.116622 5.279005 0.667674 -9.344945 -13.831801 -25.505156 9.521142 44.257274 -6.697780 2.517930 -11.582300 -16.431108 -19.494471 3.967536 -8.579409 -6.008300 -8.190456 11.478531 -67.034055 -7.610362 -3.565277 2.558946 0.724810 0.025400 -0.137170 -0.042670 15.554189 25.926605 10.753395 37.436686 8.919556 -11.914014 -2.280158 43.569063 -1.774187 1.718524 -0.892557 -0.552000 0.608910 0.483540 -0.275100 
